<?xml version="1.0" encoding="UTF-8" standalone="no"?>
<svg
   xmlns:dc="http://purl.org/dc/elements/1.1/"
   xmlns:cc="http://creativecommons.org/ns#"
   xmlns:rdf="http://www.w3.org/1999/02/22-rdf-syntax-ns#"
   xmlns:svg="http://www.w3.org/2000/svg"
   xmlns="http://www.w3.org/2000/svg"
   id="svg2334"
   version="1.1"
   viewBox="0 0 512 512"
   height="512mm"
   width="512mm">
  <defs
     id="defs2328" />
  <metadata
     id="metadata2331">
    <rdf:RDF>
      <cc:Work
         rdf:about="">
        <dc:format>image/svg+xml</dc:format>
        <dc:type
           rdf:resource="http://purl.org/dc/dcmitype/StillImage" />
        <dc:title></dc:title>
      </cc:Work>
    </rdf:RDF>
  </metadata>
  <g
     transform="translate(0,215)"
     id="layer1">
    <g
       style="stroke-width:0.15396415"
       id="g2893"
       transform="matrix(2.291298,0,0,-2.291298,11.454012,4416.3785)">
      <g
         style="stroke-width:0.15396415"
         transform="scale(0.123658)"
         id="g432">
        <path
           id="path434"
           style="fill:#28292a;fill-opacity:1;fill-rule:nonzero;stroke:none;stroke-width:0.15396415"
           d="m 954.179,16031 c -179.912,10.7 -295.699,-215.5 -295.699,-215.5 10.69,33.8 7.727,136.4 124.692,213.7 110.445,73.1 227.998,78.4 400.788,-76.6 172.79,-154.9 299.26,-124.6 299.26,-124.6 -167.44,-74.9 -349.13,192.3 -529.041,203 z m -347.356,-58.8 c 76.597,233.4 312.34,235.9 423.947,160.4 115.78,-78.4 286.79,-210.2 286.79,-210.2 -72.99,27 -184.96,111.5 -234.71,150.6 -22.2,17.5 -46.56,32.2 -72.92,42.3 -246.972,95.1 -403.107,-143.1 -403.107,-143.1 z m -268.381,-923.9 c 0,0 14.253,-26.1 10.69,-66.5 -3.563,-40.3 -62.941,-85.5 -111.633,-73.6 -48.685,11.9 -14.25,93.8 -14.25,93.8 72.444,-2.3 115.193,46.3 115.193,46.3 z m 28.503,-134.1 c 24.936,-55.9 10.687,-110.5 7.123,-129.5 -3.563,-19 -35.626,-97.4 -111.629,-97.4 -76,0 0,99.8 0,99.8 78.375,45.1 104.506,127.1 104.506,127.1 z M 180.5,15042.4 c -19.001,28.5 11.877,89.1 11.877,89.1 11.666,-47.7 41.613,-44.4 52.097,-41.6 1.63,1.8 3.715,1.2 3.715,1.2 0,0 -1.396,-0.6 -3.715,-1.2 -1.63,-1.8 -2.811,-5.9 -1.036,-15.4 3.563,-19 41.565,-25 41.565,-25 -35.623,-36.8 -85.502,-35.6 -104.503,-7.1 z M 1410.78,14793 c 0,0 -83.13,92.6 4.75,187.7 0,0 84.32,-49.9 124.69,46.3 0,0 -71.25,9.5 -78.38,84.3 0,0 49.88,3.5 61.75,57 0,0 -26.12,-7.1 -59.37,26.1 0,0 140.13,4.8 117.57,149.6 0,0 -20.19,-35.6 -48.69,-46.3 0,0 47.5,66.5 -52.25,135.4 0,0 121.12,128.3 127.07,264.8 0,0 -22.57,-21.4 -47.51,-42.7 0,0 35.62,53.4 42.75,96.2 0,0 -53.44,-52.3 -137.75,-80.8 0,0 91.44,40.4 48.69,212.6 0,0 -11.88,28.5 -52.26,47.5 0,0 27.32,61.7 -21.37,93.8 0,0 -40.38,-15.4 -67.69,19 -27.31,34.4 -59.38,62.9 -73.63,79.6 -14.25,16.6 -46.31,93.8 -121.12,128.2 -74.82,34.5 -104.51,22.6 -124.7,15.5 0,0 -43.94,20.1 -117.567,-20.2 0,0 -24.93,53.4 -127.058,47.5 -102.13,-6 -144.88,-46.3 -181.694,-79.6 0,0 -19,16.6 -41.564,2.4 -22.561,-14.3 -21.374,-23.8 -21.374,-23.8 0,0 -58.187,-1.2 -53.439,-72.4 0,0 -58.187,48.7 -133.002,32 -74.813,-16.6 -86.694,-119.9 -86.694,-119.9 0,0 -18.997,1.2 -46.312,-27.3 -27.312,-28.5 -60.563,-45.1 -90.25,-29.7 0,0 -1.188,-76 28.499,-84.3 0,0 10.687,-16.6 2.376,-20.2 -8.314,-3.6 -48.688,-27.3 -91.4409,-11.9 0,0 26.1239,-34.4 81.9389,-39.2 0,0 -15.434,-9.5 -22.561,-21.3 0,0 -7.126,3.5 -13.065,20.2 0,0 -8.311,-17.9 -1.185,-35.7 0,0 -17.813,-23.7 -10.686,-64.1 0,0 -24.94,11.9 -28.5032,22.6 0,0 -1.1878,-68.9 37.9982,-105.7 39.19,-36.8 57.003,-36.8 57.003,-36.8 0,0 -2.373,-11.9 7.126,-26.2 0,0 -26.127,-2.3 -34.438,-13 C 159.124,15549.5 152,15534 152,15534 c 0,0 -27.312,28.5 -27.312,57 0,0 -47.5033,-96.1 37.999,-163.8 0,0 -17.813,-102.2 61.753,-129.5 0,0 13.059,-13 46.313,-3.5 0,0 33.251,-15.5 32.066,-23.8 -1.191,-8.3 -33.254,-32.1 -33.254,-23.7 0,8.3 0,13 -4.751,13 -4.748,0 -32.063,-20.2 -42.749,-42.7 -10.69,-22.6 -21.376,-63 -28.503,-60.6 -7.123,2.4 -58.187,45.1 -10.687,103.3 0,0 -97.376,-53.4 -55.814,-109.2 0,0 15.44,-20.2 41.565,-17.8 0,0 -70.065,-110.5 36.81,-134.2 0,0 -67.689,-42.8 -47.497,-122.3 20.189,-79.6 42.75,-59.4 42.75,-59.4 0,0 14.249,-32.1 -16.626,-32.1 0,0 2.376,-14.2 10.687,-15.4 8.314,-1.2 -14.25,-33.3 -8.311,-58.2 5.938,-25 38.001,-74.8 129.439,-28.5 91.441,46.3 129.443,172.2 83.13,257.7 0,0 35.626,62.9 -32.063,157.9 0,0 27.309,46.3 -16.629,139 0,0 -10.686,13 -11.874,41.5 -1.188,28.5 -39.186,143.7 2.372,184.1 41.565,40.4 86.693,28.5 86.693,28.5 0,0 -45.128,20.2 -36.817,103.3 8.318,83.1 39.19,247 216.133,194.8 0,0 97.376,-225.7 399.017,-264.9 301.63,-39.1 364.57,-33.2 364.57,-33.2 0,0 7.12,-53.4 61.75,-62.9 0,0 -105.69,-104.5 -22.57,-198.4 0,0 -20.18,-22.5 -13.06,-41.5 0,0 -65.31,-41.6 -30.87,-120 0,0 -105.7,-86.7 -54.63,-235.1 51.06,-148.4 254.13,-180.5 295.7,-29.7 0,0 -104.51,-134.2 -195.95,-10.7" />
      </g>
      <g
         style="stroke-width:0.15396415"
         transform="scale(0.11457)"
         id="g436">
        <path
           id="path438"
           style="fill:#28292a;fill-opacity:1;fill-rule:nonzero;stroke:none;stroke-width:0.15396415"
           d="m 992.369,16300 c 0,0 -56.716,-35.6 -112.465,-5.8 0,0 -11.537,-2.8 -2.888,-11.5 8.65,-8.6 73.055,-27.9 115.353,17.3" />
      </g>
      <g
         style="stroke-width:0.15396415"
         transform="scale(0.114766)"
         id="g440">
        <path
           id="path442"
           style="fill:#28292a;fill-opacity:1;fill-rule:nonzero;stroke:none;stroke-width:0.15396415"
           d="m 1405.64,16300 -10.56,-11.5 c 1.92,-110.4 -25.91,-146.8 -40.3,-175.6 -14.4,-28.8 -50.86,-62.4 -113.24,-130.5 -62.38,-68.2 -176.58,-171.8 -227.44,-207.3 -34.545,-24.1 -71.359,-30.4 -87.523,-32.1 -16.171,1.7 -52.985,8 -87.525,32.1 -50.861,35.5 -165.06,139.1 -227.436,207.3 -62.378,68.1 -98.845,101.7 -113.239,130.5 -14.398,28.8 -42.226,65.2 -40.306,175.6 l -10.555,11.5 c 0,0 -9.598,-121.9 49.901,-204.4 59.499,-82.5 287.895,-318.6 382.901,-356 0,0 13.332,-8.1 46.259,-7.9 32.93,-0.2 46.259,7.9 46.259,7.9 95.004,37.4 323.394,273.5 382.904,356 59.49,82.5 49.9,204.4 49.9,204.4" />
      </g>
      <g
         style="stroke-width:0.15396415"
         transform="scale(0.112727)"
         id="g444">
        <path
           id="path446"
           style="fill:#28292a;fill-opacity:1;fill-rule:nonzero;stroke:none;stroke-width:0.15396415"
           d="m 892.332,16297.9 c -7.326,2.1 -0.974,-8.8 10.752,-13.7 11.72,-4.9 135.806,-34.2 193.446,12.7 0,0 -85.97,-33.2 -204.198,1" />
      </g>
      <g
         style="stroke-width:0.15396415"
         transform="scale(0.117583)"
         id="g448">
        <path
           id="path450"
           style="fill:#28292a;fill-opacity:1;fill-rule:nonzero;stroke:none;stroke-width:0.15396415"
           d="m 1414.12,16070.5 c -9.94,-78.8 -38.03,-120.6 -80.81,-153.9 -42.77,-33.2 -128.83,-50.4 -198.42,-21 -83.17,35 -118.51,83.7 -136.338,133.6 -10.425,29.2 -41.221,134.8 21.088,185.7 62.31,50.8 139.58,60.6 197.83,58.2 87.92,-3.6 127.73,-29.1 149.71,-42.2 21.98,-13.1 57.03,-80.2 46.94,-160.4 z m -597.949,-41.3 c -17.823,-49.9 -53.171,-98.6 -136.34,-133.6 -69.578,-29.4 -155.648,-12.2 -198.423,21 -42.772,33.3 -70.864,75.1 -80.794,153.9 -10.099,80.2 24.952,147.3 46.932,160.4 21.982,13.1 61.784,38.6 149.707,42.2 58.25,2.4 135.519,-7.4 197.829,-58.2 62.31,-50.9 31.514,-156.5 21.089,-185.7 z m 645.999,205.1 c -27.41,11 -136.38,52.3 -255.99,59 -120.17,6.7 -185.27,-47 -208.502,-69.1 -4.986,-4.7 -11.84,-6.9 -18.644,-6 -16.746,2.3 -49.2,6.3 -71.668,6.8 -22.477,-0.5 -54.931,-4.5 -71.674,-6.8 -6.811,-0.9 -13.661,1.3 -18.644,6 -23.238,22.1 -88.335,75.8 -208.506,69.1 -119.616,-6.7 -228.582,-48 -255.982,-59 -4.007,-1.7 -6.601,-5.5 -6.601,-9.9 v -37.2 c 0,-5.3 3.92,-9.6 9.139,-10.5 17.002,-2.7 25.318,-12.3 25.318,-12.3 -2.376,-41.6 -1.781,-105.8 11.288,-148 13.069,-42.1 46.337,-134.2 164.558,-152.6 118.221,-18.4 193.669,27.9 249.514,101.6 47.789,63 49.456,163.5 48.948,191.1 -0.103,5.4 3.615,10.2 8.91,11.3 15.242,3.1 43.732,3.1 43.732,3.1 0,0 28.481,0 43.723,-3.1 5.298,-1.1 9.016,-5.9 8.913,-11.3 -0.512,-27.6 1.156,-128.1 48.948,-191.1 55.84,-73.7 131.29,-120 249.51,-101.6 118.23,18.4 151.5,110.5 164.56,152.6 13.07,42.2 13.67,106.4 11.29,148 0,0 8.31,9.6 25.32,12.3 5.21,0.9 9.13,5.2 9.13,10.5 v 37.2 c 0,4.4 -2.59,8.2 -6.59,9.9" />
      </g>
      <g
         style="stroke-width:0.15396415"
         transform="scale(0.116478)"
         id="g452">
        <path
           id="path454"
           style="fill:#28292a;fill-opacity:1;fill-rule:nonzero;stroke:none;stroke-width:0.15396415"
           d="m 702.905,16279.6 -47.326,-45.2 19.226,62.4 c -6.123,1.9 -12.492,3.2 -19.226,3.2 -36.213,0 -65.564,-29.3 -65.564,-65.6 0,-36.2 29.351,-65.5 65.564,-65.5 36.202,0 65.553,29.3 65.553,65.5 0,17.6 -6.995,33.5 -18.227,45.2" />
      </g>
      <g
         style="stroke-width:0.15396415"
         transform="scale(0.116478)"
         id="g456">
        <path
           id="path458"
           style="fill:#28292a;fill-opacity:1;fill-rule:nonzero;stroke:none;stroke-width:0.15396415"
           d="m 1224.85,16279.6 -47.33,-45.2 19.23,62.4 c -6.12,1.9 -12.49,3.2 -19.23,3.2 -36.21,0 -65.56,-29.3 -65.56,-65.6 0,-36.2 29.35,-65.5 65.56,-65.5 36.2,0 65.56,29.3 65.56,65.5 0,17.6 -7,33.5 -18.23,45.2" />
      </g>
    </g>
  </g>
</svg>
