<?xml version="1.0" ?><svg fill="none" height="64" viewBox="0 0 64 64" width="64" xmlns="http://www.w3.org/2000/svg"><path d="M31.205 14.728C31.6914 14.424 32.3086 14.424 32.795 14.728L48.795 24.728C49.4975 25.1671 49.7111 26.0925 49.272 26.795C48.8329 27.4975 47.9075 27.7111 47.205 27.272L32 17.7689L16.795 27.272C16.0925 27.7111 15.1671 27.4975 14.728 26.795C14.2889 26.0925 14.5025 25.1671 15.205 24.728L31.205 14.728Z" fill="white"/><path clip-rule="evenodd" d="M18.5 27.9752V45C18.5 47.4853 20.5147 49.5 23 49.5H41C43.4853 49.5 45.5 47.4853 45.5 45V27.9752L42.5 26.1002V45C42.5 45.8284 41.8284 46.5 41 46.5H37.5V38C37.5 37.1716 36.8284 36.5 36 36.5H28C27.1716 36.5 26.5 37.1716 26.5 38V46.5H23C22.1716 46.5 21.5 45.8284 21.5 45V26.1002L18.5 27.9752ZM29.5 46.5H34.5V39.5H29.5V46.5Z" fill="white" fill-rule="evenodd"/></svg>