<svg xmlns="http://www.w3.org/2000/svg" xmlns:xlink="http://www.w3.org/1999/xlink" version="1.1" viewBox="0 0 32 32" style="enable-background:new 0 0 32 32;" xml:space="preserve"><style type="text/css">
	.st0{display:none;}
	.st1{display:inline;}
	.st2{fill:#CDF6F9;}
	.st3{fill:#FFFFFF;}
	.st4{fill:#1A83A8;}
</style><g id="Layer_1" class="st0"/><g id="Layer_2"/><g id="Layer_3"/><g id="Layer_4"/><g id="Layer_5"/><g id="Layer_6"/><g id="Layer_7"><path class="st2" d="M27.27,24.19c0,2.656-2.154,4.81-4.81,4.81H7.81C5.154,29,3,26.846,3,24.19V9.55c0-2.662,2.158-4.82,4.82-4.82   h14.64c2.656,0,4.81,2.154,4.81,4.81V24.19z"/><path class="st3" d="M15.776,11.21l1.789,2.864l3.276,0.816c0.543,0.135,0.757,0.793,0.397,1.222l-2.171,2.586l0.236,3.368   c0.039,0.559-0.52,0.965-1.04,0.755l-3.131-1.265l-3.131,1.265c-0.519,0.21-1.079-0.197-1.04-0.755l0.236-3.368l-2.171-2.586   c-0.36-0.429-0.146-1.087,0.397-1.222l3.276-0.816l1.789-2.864C14.787,10.735,15.479,10.735,15.776,11.21z"/><circle class="st3" cx="24.5" cy="7.5" r="4.5"/><path class="st4" d="M22.235,15.114c-0.178-0.547-0.618-0.958-1.176-1.097l-2.923-0.728l-1.597-2.556   c-0.305-0.488-0.831-0.779-1.406-0.779s-1.101,0.292-1.406,0.779l-1.597,2.556l-2.923,0.728c-0.559,0.139-0.999,0.549-1.176,1.097   s-0.063,1.138,0.307,1.578l1.937,2.308l-0.211,3.006c-0.04,0.574,0.214,1.118,0.679,1.457c0.464,0.337,1.06,0.411,1.597,0.196   l2.793-1.129l2.794,1.129c0.202,0.082,0.413,0.122,0.623,0.122c0.343,0,0.683-0.108,0.972-0.318   c0.465-0.338,0.719-0.883,0.679-1.457l-0.211-3.006l1.937-2.307C22.297,16.251,22.413,15.661,22.235,15.114z M18.378,18.121   c-0.15,0.179-0.225,0.409-0.208,0.642l0.221,3.141l-2.919-1.18c-0.217-0.087-0.458-0.087-0.675,0l-2.919,1.18l0.221-3.141   c0.016-0.233-0.059-0.463-0.208-0.642l-2.024-2.412l3.055-0.761c0.226-0.057,0.422-0.199,0.545-0.396l1.668-2.671l1.668,2.671   c0.124,0.198,0.319,0.34,0.545,0.396l3.055,0.761L18.378,18.121z"/><path class="st4" d="M27.27,14.64c-0.497,0-0.9,0.403-0.9,0.9v8.65c0,2.156-1.758,3.91-3.92,3.91H7.81   c-2.156,0-3.91-1.754-3.91-3.91V9.55c0-2.162,1.754-3.92,3.91-3.92h8.67c0.497,0,0.9-0.403,0.9-0.9s-0.403-0.9-0.9-0.9H7.81   c-3.148,0-5.71,2.566-5.71,5.72v14.64c0,3.148,2.562,5.71,5.71,5.71h14.64c3.154,0,5.72-2.562,5.72-5.71v-8.65   C28.17,15.043,27.767,14.64,27.27,14.64z"/><path class="st4" d="M28.318,3.682c-2.104-2.104-5.53-2.106-7.637,0c-2.105,2.105-2.105,5.531,0,7.637   c1.053,1.052,2.436,1.579,3.818,1.579s2.766-0.526,3.818-1.579c0,0,0,0,0,0C30.424,9.213,30.424,5.787,28.318,3.682z    M27.046,10.046c-1.404,1.403-3.688,1.404-5.091,0s-1.404-3.688,0-5.091c0.702-0.702,1.624-1.053,2.546-1.053   s1.844,0.351,2.546,1.052C28.449,6.358,28.449,8.642,27.046,10.046z"/><path class="st4" d="M26.041,6.6H25.4V5.959c0-0.497-0.403-0.9-0.9-0.9s-0.9,0.403-0.9,0.9V6.6h-0.641c-0.497,0-0.9,0.403-0.9,0.9   s0.403,0.9,0.9,0.9H23.6v0.641c0,0.497,0.403,0.9,0.9,0.9s0.9-0.403,0.9-0.9V8.4h0.641c0.497,0,0.9-0.403,0.9-0.9   S26.538,6.6,26.041,6.6z"/></g><g id="Layer_8"/><g id="Layer_9"/><g id="Layer_10"/><g id="Layer_11"/><g id="Layer_12"/><g id="Layer_13"/><g id="Layer_14"/><g id="Layer_15"/><g id="Layer_16"/><g id="Layer_17"/><g id="Layer_18"/><g id="Layer_19"/><g id="Layer_20"/><g id="Layer_21"/><g id="Layer_22"/><g id="Layer_23"/><g id="Layer_24"/><g id="Layer_25"/><g id="Layer_26"/></svg>