<?xml version="1.0" encoding="UTF-8" standalone="no"?>
<svg
   xmlns:dc="http://purl.org/dc/elements/1.1/"
   xmlns:cc="http://creativecommons.org/ns#"
   xmlns:rdf="http://www.w3.org/1999/02/22-rdf-syntax-ns#"
   xmlns:svg="http://www.w3.org/2000/svg"
   xmlns="http://www.w3.org/2000/svg"
   xmlns:sodipodi="http://sodipodi.sourceforge.net/DTD/sodipodi-0.dtd"
   xmlns:inkscape="http://www.inkscape.org/namespaces/inkscape"
   version="1.1"
   id="svg2"
   width="200px"
   height="200px"
   viewBox="0 0 1130 1130"
   sodipodi:docname="Emotion Time - joy - male - neu.svg"
   inkscape:version="1.0.1 (0767f8302a, 2020-10-17)">
  <sodipodi:namedview
     pagecolor="#ffffff"
     bordercolor="#666666"
     borderopacity="1"
     objecttolerance="10"
     gridtolerance="10"
     guidetolerance="10"
     inkscape:pageopacity="0"
     inkscape:pageshadow="2"
     inkscape:window-width="1853"
     inkscape:window-height="1025"
     id="namedview42"
     showgrid="false"
     inkscape:zoom="1.4142136"
     inkscape:cx="-82.704262"
     inkscape:cy="108.04427"
     inkscape:window-x="67"
     inkscape:window-y="27"
     inkscape:window-maximized="1"
     inkscape:current-layer="svg2"
     inkscape:document-rotation="0" />
  <metadata
     id="metadata46">
    <rdf:RDF>
      <cc:Work
         rdf:about="">
        <dc:format>image/svg+xml</dc:format>
        <dc:type
           rdf:resource="http://purl.org/dc/dcmitype/StillImage" />
        <dc:title>Emotion Time - joy - male</dc:title>
        <cc:license
           rdf:resource="http://creativecommons.org/licenses/by-sa/4.0/" />
        <dc:creator>
          <cc:Agent>
            <dc:title>SunnyBlvck</dc:title>
          </cc:Agent>
        </dc:creator>
      </cc:Work>
      <cc:License
         rdf:about="http://creativecommons.org/licenses/by-sa/4.0/">
        <cc:permits
           rdf:resource="http://creativecommons.org/ns#Reproduction" />
        <cc:permits
           rdf:resource="http://creativecommons.org/ns#Distribution" />
        <cc:requires
           rdf:resource="http://creativecommons.org/ns#Notice" />
        <cc:requires
           rdf:resource="http://creativecommons.org/ns#Attribution" />
        <cc:permits
           rdf:resource="http://creativecommons.org/ns#DerivativeWorks" />
        <cc:requires
           rdf:resource="http://creativecommons.org/ns#ShareAlike" />
      </cc:License>
    </rdf:RDF>
  </metadata>
  <defs
     id="defs44" />
  <title
     id="title881">Emotion Time - joy - male</title>
  <g
     id="g10"
     transform="translate(-4.1958884,14.786235)">
    <path
       style="fill:#f9d2b4;fill-opacity:1;stroke:none;stroke-width:1px;stroke-linecap:butt;stroke-linejoin:miter;stroke-opacity:1"
       d="m 540.24942,929.63737 c 0,0 30.9675,4.86427 79.4917,0.9488 l 59.2442,118.01223 c -106.5224,39.5409 -171.705,-6.6171 -171.705,-6.6171 l 29.5551,-35.0475 z"
       id="path942" />
    <path
       id="path888"
       style="opacity:1;fill:#000000;fill-opacity:1;stroke:none;stroke-width:1px;stroke-linecap:butt;stroke-linejoin:miter;stroke-opacity:1"
       d="m 1036.9997,525.53946 c 3.1726,-158.53177 4.8328,-148.01753 -1.6743,-263.10214 0,0 -21.9752,-162.879003 -114.92865,-277.523921 l -704.82907,-0.193681 c 0,0 -139.286086,121.218962 -125.361286,415.645892 m 0,0 C 82.749346,1076.3102 737.64128,977.05529 894.96965,879.77808 951.05712,845.09881 1021.0817,759.19504 1033.7902,639.86533 c 0,0 3.7638,-23.24573 3.2095,-114.32587"
       sodipodi:nodetypes="ccccccscc" />
    <path
       style="fill:#fdceb0;fill-opacity:1;stroke:#000000;stroke-width:1px;stroke-linecap:butt;stroke-linejoin:miter;stroke-opacity:1"
       d="m 941.42765,795.43432 c 54.91447,-69.7207 62.42495,-131.77292 63.44635,-196.03101 3.2116,-202.03913 -0.806,-262.99176 -0.6898,-275.03704 C 1005.0034,239.44685 912.68115,35.479178 912.68115,35.479178 372.75485,9.8552299 367.9073,16.860619 269.162,31.393658 198.8439,158.45475 168.2716,245.43011 158.8255,307.66531 c -9.4461,62.2352 -4.07746,120.42064 -3.50416,140.39273 9.7033,338.01032 235.40169,481.09592 433.60509,469.26822 101.1507,-6.0361 260.9716,-5.68379 352.50122,-121.89194 z"
       id="path929"
       sodipodi:nodetypes="sssccscss" />
    <path
       style="opacity:1;fill:#000000;fill-opacity:1;stroke:none;stroke-width:2;stroke-linecap:butt;stroke-linejoin:miter;stroke-miterlimit:4;stroke-dasharray:none;stroke-opacity:1"
       d="m 462.2017,585.49758 c 2.48922,-1.11472 95.1921,73.78941 227.94049,-2.8128 15.98483,23.12608 31.61155,59.1955 21.95823,105.42602 -8.10957,38.83735 -41.8198,99.79098 -134.10791,98.81908 -73.32761,-0.77222 -182.49145,-69.6243 -115.79081,-201.4323 z"
       id="path854"
       sodipodi:nodetypes="ccssc" />
    <path
       style="fill:#750000;fill-opacity:1;stroke:none;stroke-width:1px;stroke-linecap:butt;stroke-linejoin:miter;stroke-opacity:1"
       d="m 452.16598,660.33435 251.86389,4.12633 c 0,0 -15.67525,109.09597 -120.59064,108.96189 C 463.35327,773.26909 452.16598,660.33435 452.16598,660.33435 Z"
       id="path861"
       sodipodi:nodetypes="ccsc" />
    <path
       id="path841"
       style="fill:#d19477;fill-opacity:1;stroke:none;stroke-width:1px;stroke-linecap:butt;stroke-linejoin:miter;stroke-opacity:1"
       d="m 259.48437,193.98376 c 0,0 -49.58329,55.38321 -16.9454,325.20801 19.72612,163.08026 218.8247,387.64259 317.29009,397.98465 0,0 -323.35263,0.78876 -409.65671,-314.09436 -75.208659,-274.4011 27.87622,-463.54722 27.87622,-463.54722 l 99.1595,11.40638 z"
       sodipodi:nodetypes="cscsccc" />
    <path
       id="path15"
       style="opacity:1;fill:#000000;fill-opacity:1;stroke:none;stroke-width:1;stroke-linecap:butt;stroke-linejoin:miter;stroke-miterlimit:4;stroke-dasharray:none;stroke-opacity:1"
       d="m 914.01607,-2.8804704 c 0,0 -464.07787,3.08092182 -705.8575,10.9313142 0,0 -37.37397,37.2017282 -75.12367,116.3709062 0,0 10.6682,130.49843 415.9516,53.32943 226.3895,-43.10628 226.68843,-74.71043 375.66441,-49.09983 -15.68906,64.09934 10.08227,185.765 96.92719,281.15917 20.0831,22.0601 22.7866,-242.57734 -107.56203,-412.6909904 z"
       sodipodi:nodetypes="cccscsc" />
    <path
       style="fill:#000000;fill-opacity:1;stroke:none;stroke-width:1px;stroke-linecap:butt;stroke-linejoin:miter;stroke-opacity:1"
       d="m 317.02775,319.29932 -16.13763,-22.47117 c 0.15389,-0.0382 62.66764,-78.44837 157.20496,-12.64012 l -22.65633,22.5836 c 0,0 -52.6162,-43.98117 -118.411,12.52769 z"
       id="path844"
       sodipodi:nodetypes="ccccc" />
    <path
       style="fill:#000000;fill-opacity:1;stroke:none;stroke-width:1px;stroke-linecap:butt;stroke-linejoin:miter;stroke-opacity:1"
       d="m 691.42113,276.47171 c 1.73628,5.20472 59.34541,-65.35951 164.68311,5.81813 l -19.45381,24.47334 c 0,0 -59.0541,-52.44001 -124.0752,-7.8836 z"
       id="path846"
       sodipodi:nodetypes="ccccc" />
    <path
       id="path856"
       style="opacity:1;fill:#ffffff;fill-opacity:1;stroke:#000000;stroke-width:12.43;stroke-linecap:round;stroke-linejoin:round;stroke-miterlimit:4;stroke-dasharray:none;stroke-opacity:1"
       d="m 448.40422,666.12986 259.54956,4.48909 c 4.47185,-45.32634 -20.30868,-79.0707 -20.69806,-79.0343 -123.83084,71.2094 -219.57358,3.30711 -222.37337,3.23245 -17.83671,35.45 -16.47813,71.31276 -16.47813,71.31276 z"
       sodipodi:nodetypes="ccccc" />
    <circle
       style="opacity:1;fill:#ffffff;fill-opacity:1;stroke:none;stroke-width:29.6;stroke-miterlimit:4;stroke-dasharray:none;stroke-dashoffset:24.05;stroke-opacity:1"
       id="path889"
       cx="0"
       cy="0"
       r="0" />
    <circle
       style="opacity:1;fill:#ffffff;fill-opacity:1;stroke:none;stroke-width:29.6;stroke-miterlimit:4;stroke-dasharray:none;stroke-dashoffset:24.05;stroke-opacity:1"
       id="path889-6"
       cx="0"
       cy="0"
       r="0" />
    <path
       style="fill:#000000;fill-opacity:1;stroke:none;stroke-width:1px;stroke-linecap:butt;stroke-linejoin:miter;stroke-opacity:1"
       d="m 91.346884,408.99849 c 0,0 -69.961798,47.39838 -60.727798,121.78221 11.1061,89.46453 94.835704,108.4309 94.470804,109.33399 -0.365,0.90308 -33.743006,-231.1162 -33.743006,-231.1162 z"
       id="path926" />
    <path
       style="opacity:1;fill:#ffcaa9;fill-opacity:1;stroke:none;stroke-width:1px;stroke-linecap:butt;stroke-linejoin:miter;stroke-opacity:1"
       d="M 92.068212,449.85348 C 95.609159,498.7484 102.98833,551.6781 113.10072,598.75803 111.96657,599.09147 7.2912052,538.76685 92.068212,449.85348 Z"
       id="path928"
       sodipodi:nodetypes="ccc" />
    <path
       style="fill:#000000;fill-opacity:1;stroke:none;stroke-width:1px;stroke-linecap:butt;stroke-linejoin:miter;stroke-opacity:1"
       d="m 1035.9042,369.86471 c 0,0 77.7815,27.22404 78.1353,107.38575 0.384,87.01582 -81.5739,110.97414 -81.5739,110.97414 z"
       id="path934"
       sodipodi:nodetypes="cscc" />
    <path
       style="fill:#ffcaa9;fill-opacity:1;stroke:none;stroke-width:1px;stroke-linecap:butt;stroke-linejoin:miter;stroke-opacity:1"
       d="m 1039.0102,405.41923 -2.0313,150.12031 c 11.3331,0.85949 108.7449,-75.82407 2.0313,-150.12031 z"
       id="path932"
       sodipodi:nodetypes="ccc" />
    <path
       style="fill:#000000;fill-opacity:1;stroke:none;stroke-width:1px;stroke-linecap:butt;stroke-linejoin:miter;stroke-opacity:1"
       d="m 489.75243,915.92248 c 0,0 -2.4309,43.26446 -2.2792,79.98829 0,0 -4.1314,15.24833 -15.0805,20.60033 l 17.8416,23.557 c 0,0 32.2597,-16.1513 33.4887,-47.08913 l -0.035,-70.68539 z"
       id="path936" />
    <path
       style="fill:#d19477;fill-opacity:1;stroke:none;stroke-width:1px;stroke-linecap:butt;stroke-linejoin:miter;stroke-opacity:1"
       d="m 519.96102,945.80075 22.27952,1.97908 -2.88362,45.26034 c 0,0 0.9604,33.35763 -29.5433,50.40383 l -24.9088,-4.1911 c 0,0 33.6693,-18.2228 33.5337,-47.88613 1.99546,-20.60989 1.5225,-45.56602 1.5225,-45.56602 z"
       id="path944"
       sodipodi:nodetypes="ccccccc" />
    <path
       style="fill:none;stroke:none;stroke-width:1px;stroke-linecap:butt;stroke-linejoin:miter;stroke-opacity:1"
       d="m 547.18702,944.44711 -0.06,74.80009 c 0,0 -5.6201,36.3159 -33.645,47.4815 -28.025,11.1656 -15.7121,-9.5154 -15.7121,-9.5154 0,0 26.6201,-19.8 28.0566,-38.5311 1.9469,-25.38553 0.2416,-76.13269 0.2416,-76.13269 z"
       id="path940" />
    <path
       id="path949"
       style="fill:#000000;fill-opacity:1;stroke:none;stroke-width:1;stroke-linecap:butt;stroke-linejoin:miter;stroke-miterlimit:4;stroke-dasharray:none;stroke-opacity:1"
       d="m 452.32403,1039.178 c 0,0 -65.46701,14.252 -113.51421,75.2803 l -36.3089,-1.11 c 0,0 26.8771,-102.6063 163.42935,-104.4573 120.21087,101.0582 214.26239,-0.4536 219.71886,-0.625 62.92698,-1.9765 125.58235,50.648 154.68125,106.0282 l -42.50795,-0.032 c -28.12312,-27.5332 -91.0815,-69.3337 -91.0815,-69.3337 0,0 -114.901,105.4387 -254.4169,-5.7503" />
    <path
       style="fill:#30c085;fill-opacity:1;stroke:none;stroke-width:1px;stroke-linecap:butt;stroke-linejoin:miter;stroke-opacity:1"
       d="m 338.80982,1114.4583 c 0,0 26.59007,-70.1444 114.79191,-76.7187 0,0 99.32409,106.8243 244.78439,2.2068 0,0 57.98299,6.4942 99.43631,74.3156 z"
       id="path951" />
    <path
       style="fill:#000000;fill-opacity:1;stroke:none;stroke-width:1px;stroke-linecap:butt;stroke-linejoin:miter;stroke-opacity:1"
       d="m 625.07063,931.40141 c 0,0 11.046,-10.75853 36.324,-2.7406 0,0 -9.2412,60.17276 9.2077,80.63599 2.963,3.2865 7.2783,6.6474 10.8555,7.4351 21.1725,4.6622 -14.68286,29.2988 -14.68286,29.2988 0,0 -26.629,-12.4347 -32.0419,-28.6015 -8.1863,-24.44991 -4.8268,-86.68227 -4.8268,-86.68227"
       id="path973"
       sodipodi:nodetypes="ccsscsc" />
  </g>
  <circle
     style="fill:#ffffff;fill-opacity:1;stroke-width:0.999996"
     id="path43"
     cx="-4.448319"
     cy="2.2772937"
     r="0" />
  <circle
     style="fill:#ffffff;fill-opacity:1;stroke-width:0.999997"
     id="path43-3"
     cx="-4.448319"
     cy="2.2772937"
     r="0" />
  <path
     id="path882"
     style="fill:#9a0000;fill-opacity:1;stroke:none;stroke-width:0.565;stroke-linecap:butt;stroke-linejoin:miter;stroke-miterlimit:4;stroke-dasharray:none;stroke-opacity:1"
     d="M 568.36842,787.89182 C 480.17762,785.14197 452.99544,706.60368 450.21633,687.14595 l 45.09459,0.88722 c 0,0 28.16597,51.21438 111.4216,69.87578 2.04706,0.45884 20.66424,31.82341 -38.3641,29.98287 z"
     sodipodi:nodetypes="sccss" />
  <path
     style="fill:#ea6280;fill-opacity:1;stroke:none;stroke-width:0.565;stroke-linecap:butt;stroke-linejoin:miter;stroke-miterlimit:4;stroke-dasharray:none;stroke-opacity:1"
     d="m 566.75579,787.81998 c 3.4276,-34.57413 41.08823,-85.21934 112.17419,-54.10706 -20.86477,31.87455 -51.48991,57.74566 -112.17419,54.10706 z"
     id="path83"
     sodipodi:nodetypes="ccc" />
  <ellipse
     style="fill:#000000;stroke-width:7.80474;stroke-dashoffset:24.05"
     id="path14-36"
     cx="781.53088"
     cy="459.51773"
     rx="74.591095"
     ry="69.13166" />
  <ellipse
     style="fill:#000000;fill-opacity:1;stroke-width:7.80474;stroke-dashoffset:24.05"
     id="path14-3-7"
     cx="365.14807"
     cy="464.04413"
     rx="74.591095"
     ry="69.13166" />
  <ellipse
     style="opacity:1;fill:#ffffff;fill-opacity:1;stroke:none;stroke-width:29.6;stroke-miterlimit:4;stroke-dasharray:none;stroke-dashoffset:24.05;stroke-opacity:1"
     id="path867-5"
     ry="25.370136"
     rx="27.368187"
     cy="443.20129"
     cx="386.21429" />
  <ellipse
     style="opacity:1;fill:#ffffff;fill-opacity:1;stroke:none;stroke-width:29.6;stroke-miterlimit:4;stroke-dasharray:none;stroke-dashoffset:24.05;stroke-opacity:1"
     id="path867-3-3"
     ry="25.370136"
     rx="27.368187"
     cy="438.521"
     cx="801.2276" />
  <ellipse
     style="fill:#ffffff;stroke-width:0.999999"
     cx="367.30167"
     cy="496.72305"
     id="circle37-5"
     rx="12.367021"
     ry="11.290594" />
  <ellipse
     style="fill:#ffffff;stroke-width:0.999999"
     cx="786.16687"
     cy="492.84573"
     id="circle39-6"
     rx="12.367021"
     ry="11.290594" />
  <rect
     style="fill:#61d7fb;stroke:#15af00;stroke-width:84.75"
     id="rect80"
     width="290.11487"
     height="0"
     x="402.23441"
     y="549.41461" />
</svg>
